<?xml version="1.0" encoding="UTF-8" standalone="no"?>
<!DOCTYPE svg PUBLIC "-//W3C//DTD SVG 1.1//EN" "http://www.w3.org/Graphics/SVG/1.1/DTD/svg11.dtd">
<svg width="100%" height="100%" viewBox="0 0 24 24" version="1.1" xmlns="http://www.w3.org/2000/svg" xmlns:xlink="http://www.w3.org/1999/xlink" xml:space="preserve" xmlns:serif="http://www.serif.com/" style="fill-rule:evenodd;clip-rule:evenodd;stroke-linejoin:round;stroke-miterlimit:2;">
    <path d="M21.146,8.182c-0.139,0.108 -2.597,1.493 -2.597,4.572c0,3.562 3.128,4.822 3.221,4.853c-0.014,0.077 -0.497,1.726 -1.649,3.406c-1.027,1.479 -2.1,2.955 -3.732,2.955c-1.632,0 -2.052,-0.948 -3.936,-0.948c-1.836,0 -2.489,0.979 -3.982,0.979c-1.493,0 -2.535,-1.368 -3.732,-3.048c-1.387,-1.973 -2.508,-5.038 -2.508,-7.947c0,-4.666 3.034,-7.141 6.02,-7.141c1.587,0 2.909,1.042 3.905,1.042c0.948,0 2.427,-1.104 4.232,-1.104c0.684,0 3.142,0.062 4.76,2.381Zm-5.617,-4.356c0.746,-0.886 1.275,-2.115 1.275,-3.344c0,-0.17 -0.014,-0.343 -0.046,-0.482c-1.215,0.046 -2.659,0.809 -3.531,1.819c-0.684,0.778 -1.323,2.007 -1.323,3.252c0,0.187 0.031,0.374 0.046,0.434c0.077,0.014 0.202,0.031 0.326,0.031c1.09,0 2.46,-0.73 3.252,-1.711Z" style="fill-rule:nonzero;"/>
</svg>
